# xmcd CD database file
#
# Track frame offsets:
#	151
#	12528
#	23625
#	35103
#	50579
#	62626
#	82663
#
# Disc length: 1338 seconds
#
# Revision: 0
# Processed by: cddbd v1.5.2PL0 Copyright (c) Steve Scherf et al.
# Submitted via: CDex 1.70beta2
#
DISCID=50053807
DTITLE=Ronnie Beard - Black and White
DYEAR=1996
DGENRE=Country
TTITLE0=Hillbillyville
TTITLE1=Honky Tonk Angel
TTITLE2=Million Dollar Cowboy 2000 (Rides Into The Millennium)
TTITLE3=Por Ti Sere (4 U I Will Be)
TTITLE4=Anger
TTITLE5=Head Liner Man
TTITLE6=Angels
EXTD=YEAR: 1996
EXTT0=
EXTT1=
EXTT2=
EXTT3=
EXTT4=
EXTT5=
EXTT6=
PLAYORDER=
